<?xml version="1.0" encoding="utf-8"?>
<!-- Generator: Adobe Illustrator 21.1.0, SVG Export Plug-In . SVG Version: 6.00 Build 0)  -->
<svg version="1.1" id="Layer_1" xmlns="http://www.w3.org/2000/svg" xmlns:xlink="http://www.w3.org/1999/xlink" x="0px" y="0px"
	 viewBox="0 0 243 235" style="enable-background:new 0 0 243 235;" xml:space="preserve">
<style type="text/css">
	.st0{fill:#FFFFFF;}
</style>
<g id="J1roem_1_">
	<g>
		<path class="st0" d="M233.2,108.3c0,6.7,0,13.3,0,20c-0.3,0.9-0.7,1.9-0.8,2.8c-7.3,47.8-34.1,79.3-79.9,94.3
			c-7.5,2.5-15.5,3.3-23.3,4.8c-5.7,0-11.3,0-17,0c-2.4-0.4-4.9-0.8-7.3-1.1C44.2,221.1,0.5,162.8,9.4,101.9
			c7.9-54.4,54-95.1,109-96.5c50.1-1.2,95.5,31.6,109.8,79.7C230.5,92.7,231.6,100.6,233.2,108.3z M218.2,118.5
			c-0.3-55.7-43.6-98.4-99.3-98.1C67,20.6,23,65.2,23.3,117.2c0.3,55.5,43.8,98.4,99.4,98.1C174.7,215,218.5,170.7,218.2,118.5z"/>
		<path class="st0" d="M121.5,137.9c10.2-10.3,20.2-20.5,30.3-30.6c4.1-4.1,8.2-8.3,12.4-12.3c3.8-3.6,8.3-3.7,11.5-0.4
			c2.8,3,2.5,7.4-1.1,11.1c-15.6,15.7-31.3,31.3-46.9,47c-4.3,4.2-8.3,4.3-12.5,0.1c-15.7-15.6-31.3-31.3-46.9-47
			c-3.8-3.8-4.1-8.3-0.9-11.4c3.2-3.2,7.5-2.9,11.4,0.9c13,12.9,25.9,25.9,38.9,38.8C118.6,135.2,119.8,136.3,121.5,137.9z"/>
	</g>
</g>
</svg>
