<svg id="Layer_1" xmlns="http://www.w3.org/2000/svg" viewBox="0 0 2207.6 2201.6"><style>.st0{fill:#fff}</style><path class="st0" d="M1101.1 2176.4c-145.2 0-286-28.4-418.6-84.5-63.7-27-125.2-60.3-182.7-99.2-56.9-38.5-110.5-82.7-159.2-131.3s-92.8-102.2-131.3-159.2c-38.8-57.5-72.2-119-99.2-182.7-56.1-132.6-84.5-273.4-84.5-418.6s28.4-286 84.5-418.6c27-63.7 60.3-125.2 99.2-182.7 38.5-56.9 82.7-110.5 131.3-159.2s102.2-92.8 159.2-131.3c57.5-38.8 119-72.2 182.7-99.2 132.5-56 273.4-84.5 418.6-84.5s286 28.4 418.6 84.5c63.7 27 125.2 60.3 182.7 99.2 56.9 38.5 110.5 82.7 159.2 131.3s92.8 102.2 131.3 159.2c38.8 57.5 72.2 119 99.2 182.7 56.1 132.6 84.5 273.4 84.5 418.6s-28.4 286-84.5 418.6c-27 63.7-60.3 125.2-99.2 182.7-38.5 56.9-82.7 110.5-131.3 159.2s-102.2 92.8-159.2 131.3c-57.5 38.8-119 72.2-182.7 99.2-132.6 56.1-273.4 84.5-418.6 84.5zm0-2126c-141.8 0-279.4 27.8-408.9 82.5C567.1 185.8 454.8 261.6 358.3 358S186 566.9 133.1 692c-54.8 129.5-82.5 267.1-82.5 408.9s27.8 279.4 82.5 408.9c52.9 125.1 128.7 237.4 225.1 333.9s208.8 172.2 333.9 225.1c129.5 54.8 267.1 82.5 408.9 82.5s279.4-27.8 408.9-82.5c125.1-52.9 237.4-128.7 333.9-225.1s172.2-208.8 225.1-333.9c54.8-129.5 82.5-267.1 82.5-408.9S2123.8 821.5 2069 692c-52.9-125.1-128.7-237.4-225.1-333.9S1635.1 185.9 1510 133c-129.5-54.8-267.1-82.6-408.9-82.6z"/><path class="st0" d="M368 828.4h415.9v107.2H523.5v79.8H765v102.4H523.5v99h267.9v113.7H368V828.4zM1084.5 1188.1l132.6 15.1c-7.3 27.6-19.3 51.6-36 71.8-16.7 20.2-38 35.9-63.9 47.1-25.9 11.2-58.9 16.8-98.8 16.8-38.6 0-70.8-3.6-96.5-10.8-25.7-7.2-47.8-18.8-66.3-34.9-18.5-16.1-33-35-43.5-56.6-10.5-21.7-15.8-50.4-15.8-86.3 0-37.4 6.4-68.6 19.2-93.5 9.4-18.3 22.2-34.6 38.4-49.1s32.9-25.3 50-32.4c27.2-11.2 62-16.8 104.5-16.8 59.4 0 104.6 10.6 135.8 31.9 31.2 21.2 53.1 52.3 65.6 93.2l-131.2 17.5c-4.1-15.5-11.6-27.2-22.5-35.1-10.8-7.9-25.4-11.8-43.7-11.8-23.1 0-41.8 8.3-56 24.8-14.3 16.5-21.4 41.5-21.4 75.1 0 29.9 7.1 52.6 21.2 68.1 14.2 15.5 32.2 23.3 54.1 23.3 18.3 0 33.6-4.7 46.1-14 12.6-9.6 22-24 28.1-43.4z"/><path class="st0" d="M1216.5 828.4H1356v185c19-19.6 37.8-33.7 56.5-42.1 18.7-8.5 40.9-12.7 66.5-12.7 37.9 0 67.8 11.5 89.6 34.6 21.8 23.1 32.7 58.5 32.7 106.2v231.3h-140.1v-200.1c0-22.8-4.2-39-12.7-48.5-8.4-9.5-20.3-14.2-35.6-14.2-16.9 0-30.6 6.4-41.1 19.2-10.5 12.8-15.8 35.7-15.8 68.9v174.7h-139.4V828.4zM1755.7 1344.9c-23.6 0-44-7.6-61.1-22.8-17.1-15.2-25.7-36.5-25.7-64 0-23.2 8.2-43.2 24.6-60 16.4-16.7 36.5-25.1 60.5-25.1s44.4 8.3 61.4 24.8c16.9 16.6 25.4 36.6 25.4 60.2 0 27-8.5 48.3-25.4 63.7-17 15.5-36.9 23.2-59.7 23.2z"/></svg>